<svg xmlns="http://www.w3.org/2000/svg" xmlns:xlink="http://www.w3.org/1999/xlink" viewBox="0 0 283.46 185.59"><defs><style>.cls-1{fill:none;}.cls-2{fill:#f7941d;}.cls-3{clip-path:url(#clip-path);}.cls-4{fill:#c7c8ca;}.cls-5{fill:#414042;}</style><clipPath id="clip-path"><path class="cls-1" d="M163.05,84.06s-1.51-3.47-23.62-3.47S86,94.15,86,94.15C71.57,141,167.42,140.21,194,115.86s-8.5-36.11-8.5-36.11Z"/></clipPath></defs><g id="Layer_2" data-name="Layer 2"><g id="Layer_1-2" data-name="Layer 1"><path class="cls-2" d="M184.5,73.91a48.74,48.74,0,1,1-48.73-48.73A48.74,48.74,0,0,1,184.5,73.91"/><g class="cls-3"><path class="cls-4" d="M184.64,74A48.81,48.81,0,1,1,135.83,25.3,48.77,48.77,0,0,1,184.64,74"/></g><path class="cls-5" d="M81.19,97.82c.49-.28,1-.51,1.24-.66h0C92.9,92,104.24,87.49,115,85.15a131.39,131.39,0,0,1,27.63-3.29c14.18,0,20.21,3.29,20.21,3.29s33.4-7.34,44.38-10.29c-11.52,2,.13,0,0,0-3.7.61,0,0-14.62,2.55-15.36,2.68-29.76,5.27-29.76,5.27A82.16,82.16,0,0,0,141,79.16c-1.18,0-2.36,0-3.52.13-10.87.84-27,3.44-54.65,16.36h0l-.35.17v0c-1.13.66-4.5,2.68-4.58,3.42"/><path class="cls-5" d="M76.69,98.45a59.69,59.69,0,0,1,5.84-3.91c19.1-11.78,28-17,27.56-29.15-.46-13.89-22.38-15.28-22.38-15.28l6.14-4.43s1.27-3.91,3.12-5,7.26-2.46,7.26-2.46.86,28,32.89,28.25h.33c18,0,36.11-12.51,36.11-12.51a159.91,159.91,0,0,1-22.08,8.5,41.43,41.43,0,0,1-11.81,1.69c-8.72,0-17.1-2.63-22.63-7.09-8-6.49-11.19-15.6-8.41-20.16s10.58-5.71,15.9-9.88A15.15,15.15,0,0,0,127.29,24c1.86-1.19,6.49-4.19,7.08-4.77.73-.74,3.68-9.27,3.68-9.27l-5,8.53-3.5,1.86A117.12,117.12,0,0,0,136.19,6.1s-5.94,10.42-11.12,16.52-14.67,8.72-14.67,8.72a72.58,72.58,0,0,1,5-8.87c2-2.63,9-3.71,10.58-5.25S132.25,0,132.25,0l-8,15.83s-.54.92-5.48,2.47-5.09,2.93-7.1,6.48c-1.88,3.33-8.09,10.44-15.75,12.82-4.48,1.39-4.22,6.13-7.26,8.34-4.58,3.31-10.08,4.36-8.95,5.86s7.43,1.14,11.42,2c8.74,1.91,17.69,5.24,16.52,14.67-1.4,11.39-11.73,15.89-24.54,23.34l-.11.07-.64.37h0L76.2,95.93"/><path class="cls-5" d="M113.64,87.87H130l.36.36v5.69c0,.65-.4,1-1.21,1H118.48a1.81,1.81,0,0,0-1.93,1.58v19.12c.1.8.81,1.12,1.21,1.33H122a.64.64,0,0,0,.73-.73V104.44c.17-.13.3-.22.73-.58h7.14a.85.85,0,0,1,1,1v18.27c0,.61-.16,1-.48,1.09h-16q-4.41-1.07-6.06-3.75a8.7,8.7,0,0,1-1.33-3.87V95.13a7.42,7.42,0,0,1,2.66-5.44,6.1,6.1,0,0,1,3.27-1.82"/><path class="cls-5" d="M141.6,87.87h15.49l.36.36v5.69a.81.81,0,0,1-.48.85H146c-1.29.37-1.94,1.06-1.94,2.06v2.54c0,1.34,1.24,2,3.63,2.54.6.13,3.18.69,7.63,1.82,2.46.62,3.27,3.48,3.27,6.53v5.09q0,6-5.21,8.23l-3,.6H136.64a1.26,1.26,0,0,1-1.09-.72V117.4l.7-.46.87,0h10.65c1.29-.26,1.94-.91,1.94-1.94v-3a2.11,2.11,0,0,0-1.57-2.18c-7.26-1.53-10.29-2.91-10.9-3.27-1.56-.91-2.05-3-2.05-5.57v-5.2c0-3.32,1.65-5.79,5-7.38Z"/><path class="cls-5" d="M162.81,87.87H186.5c.49,0,.73.33.73,1v5.69a1,1,0,0,1-1.09,1.09H172.71l-.37.36v6.54a.86.86,0,0,0,.37.72h10.41a.82.82,0,0,1,.48.85v6.29a.75.75,0,0,1-.85.85H172.59l-.25.24v12.35l-.36.36h-9.32c-.26,0-.42-.56-.48-1.69L162.3,89v-.18c.26-.43.38-.68.51-.91"/><path class="cls-5" d="M6.69,154.59h0l.78,2.24H9v1.06a3.53,3.53,0,0,1-.23,1.29A3.08,3.08,0,0,1,5.71,161a3.11,3.11,0,0,1-3.44-3.17v-8.18a5.94,5.94,0,0,1,0-.76c.26-1.68,1.39-2.5,3.44-2.5a8,8,0,0,1,2.57.5l.39.14.72-1.7h0l-.36-.19A7.52,7.52,0,0,0,2.39,145C.76,146,0,147.54,0,149.91v7.9A5,5,0,0,0,3.73,163a7,7,0,0,0,2,.29,6,6,0,0,0,3.44-1l.25.73H11.2v-8.41Z"/><path class="cls-5" d="M19.75,148.59l1.92,6H17.89l.54-1.75Zm-1-4.07h0L12.86,163h2.39l2-6.17h5.1l2,6.17h2.41l-6-18.48Z"/><path class="cls-5" d="M49.52,148.59l1.92,6H47.66l.54-1.75Zm-1-4.07h0L42.63,163H45l1.14-3.57.83-2.6h5.1l2,6.17h2.42l-6-18.48Z"/><path class="cls-5" d="M77.57,154.59H73.81l1.85-6ZM74.7,144.52h0L68.76,163h2.42l2-6.17h5.08l2,6.17h2.45l-6-18.48Z"/><path class="cls-5" d="M96.11,152.11c-2.18-.74-4.06-1.38-4.06-3,0-1.43,1.09-2.36,3-2.57a7.33,7.33,0,0,1,.83,0,6.56,6.56,0,0,1,3,.68l.45.23v0l0,0,.16-.48a7.68,7.68,0,0,0,.45-1.47v-.28l-.24-.11a8.11,8.11,0,0,0-3.86-.8,8.41,8.41,0,0,0-1.47.12c-3.19.49-4.65,2.63-4.65,4.64,0,3.25,3,4.29,5.55,5.2,2.38.84,4.43,1.56,4.43,3.63,0,2.87-2.83,3.19-4.07,3.19-2.44,0-3.91-1.55-4-3l0-.4h-2.3l0,.44c.08,2.57,2.3,5.17,6.36,5.17h0c4.1,0,6.45-2,6.45-5.54s-3.18-4.66-6-5.62"/><polygon class="cls-5" points="102.23 144.53 102.23 144.53 102.23 146.65 106.5 146.65 106.5 163 106.51 163 108.78 163 108.78 146.65 113.2 146.65 113.2 146.65 113.2 144.53 102.23 144.53 102.23 144.53"/><polygon class="cls-5" points="114.65 144.53 114.65 163 123.87 163 123.87 163 123.87 160.88 116.93 160.88 116.93 153.99 121.13 153.99 121.13 153.99 121.67 152.41 121.9 151.74 116.93 151.74 116.93 146.7 123.92 146.7 123.92 146.7 123.92 144.53 114.65 144.53 114.65 144.53"/><polygon class="cls-5" points="126.35 144.53 126.35 163 135.56 163 135.57 163 135.57 160.88 128.62 160.88 128.62 153.99 132.82 153.99 132.83 153.99 133.21 152.88 133.6 151.74 133.6 151.74 133.6 151.74 128.62 151.74 128.62 146.7 135.61 146.7 135.62 146.7 135.62 144.53 126.35 144.53 126.35 144.53"/><polygon class="cls-5" points="140.32 144.53 138.05 144.53 138.05 144.53 138.05 163 147.99 163 147.99 160.88 140.32 160.88 140.32 144.53"/><polygon class="cls-5" points="158.03 151.74 158.03 146.72 165.02 146.72 165.02 146.72 165.02 146.72 165.02 144.52 155.76 144.52 155.76 144.53 155.76 163 158.03 163 158.03 153.99 161.61 153.99 162.2 152.56 162.55 151.75 162.55 151.74 158.03 151.74"/><path class="cls-5" d="M170.3,148.59l1.92,6h-3.77l1.41-4.58Zm-1-4.07h0L163.42,163h2.39l2-6.17h5.11l2,6.17h2.42l-6-18.48Z"/><path class="cls-5" d="M184.79,160.8h-3.9V154h4.33c1.38,0,2.78,1,2.78,3.22a4,4,0,0,1-.77,2.73,3.13,3.13,0,0,1-2.44.86m-.23-9.06h-3.67v-5h3.52c1.89,0,2.74.78,2.74,2.51a2.28,2.28,0,0,1-2.59,2.51m3.54.9a3.84,3.84,0,0,0,.48-.52,4.46,4.46,0,0,0,.89-2.89c0-3-1.77-4.7-4.86-4.7h-6V163h6.22c3.47,0,5.54-2.13,5.54-5.69a5.19,5.19,0,0,0-2.28-4.67"/><path class="cls-5" d="M199.68,154.59h-4.55v-7.87h4.45c2.3,0,2.79,2,2.79,3.66a7.59,7.59,0,0,1-.36,2.74,2.34,2.34,0,0,1-.37.64,2.31,2.31,0,0,1-2,.83m5-4.25c0-3.7-1.88-5.82-5.16-5.82h-6.62V163h2.27v-6.16h4.53c.24,0,.48,0,.71,0l2.12,6.2h2.34l-2.31-6.91c2.12-1.4,2.12-4.32,2.12-5.75"/><polygon class="cls-5" points="206.09 144.53 206.09 144.53 206.09 146.61 207.78 146.66 207.78 163 210.05 163 210.05 144.53 210.05 144.53 206.09 144.53 206.09 144.53"/><path class="cls-5" d="M222,160.39c-.41.14-.8.26-1.18.36a9.88,9.88,0,0,1-2.57.35,3.47,3.47,0,0,1-2-.55,2.46,2.46,0,0,1-.82-1.05,4.2,4.2,0,0,1-.27-1.59v-8.25c0-2.17,1.17-3.26,3.49-3.26a7.74,7.74,0,0,1,2.57.5l.39.14h0l.72-1.71-.36-.18a7.49,7.49,0,0,0-6.69-.19c-1.47.9-2.39,2-2.39,4.93V158a5,5,0,0,0,1.95,4.39,5.94,5.94,0,0,0,3.4.91,11.21,11.21,0,0,0,2.54-.33,14.24,14.24,0,0,0,1.77-.54l.36-.14-.51-2Z"/><path class="cls-5" d="M231,148.59l1.92,6h-3.78l.87-2.82Zm-1-4.07h0L224.11,163h2.39l2-6.17h5.1l2,6.17H238l-6-18.48Z"/><polygon class="cls-5" points="236.72 144.53 236.72 144.53 236.72 146.65 241 146.65 241 163 243.27 163 243.27 163 243.27 146.65 247.7 146.65 247.7 146.65 247.7 144.53 236.72 144.53 236.72 144.53"/><polygon class="cls-5" points="249.07 144.53 249.07 144.53 249.07 146.61 250.75 146.66 250.75 163 253.03 163 253.03 144.53 249.07 144.53 249.07 144.53"/><path class="cls-5" d="M261.63,161.08a3.12,3.12,0,0,1-3.45-3.19v-8.31a3.7,3.7,0,0,1,.36-1.7,3.27,3.27,0,0,1,3.08-1.56c1.3,0,3.47.42,3.47,3.27v8.27a2.83,2.83,0,0,1-1.8,2.94,4.7,4.7,0,0,1-1.66.28m.05-17c-2.29,0-4,.81-4.91,2.3a6.25,6.25,0,0,0-.86,3.39v8.1c0,4,3,5.36,5.74,5.36h0c2.75,0,5.69-1.41,5.69-5.36v-8.07c0-3.58-2.12-5.72-5.66-5.72"/><polygon class="cls-5" points="281.19 144.52 281.19 144.53 281.19 144.53 281.19 158.49 272.3 144.52 270.23 144.52 270.23 144.53 270.22 144.53 270.22 163 270.23 163 272.49 163 272.49 163 272.49 149.03 281.38 163 281.39 163 283.46 163 283.46 163 283.46 144.52 281.19 144.52"/><polygon class="cls-5" points="31.09 160.85 41.02 146.35 41.02 146.35 41.02 144.53 28.39 144.53 28.39 146.67 28.39 146.67 28.39 146.67 37.98 146.67 28.06 161.17 28.06 161.18 28.06 163 41.17 163 41.17 163 41.17 160.85 41.17 160.85 31.09 160.85"/><polygon class="cls-5" points="60.11 144.53 60.11 144.53 57.84 144.53 57.84 144.53 57.84 163 67.78 163 67.78 160.88 60.11 160.88 60.11 144.53"/><path class="cls-5" d="M15.8,179.82h0c-1.15-.39-2.13-.73-2.13-1.59s.77-1.38,2-1.38a3.46,3.46,0,0,1,1.57.36l.22.11.07-.23a4,4,0,0,0,.24-.76v-.13l-.12,0a4.15,4.15,0,0,0-2-.41c-2.17,0-3.15,1.27-3.15,2.45,0,1.68,1.46,2.2,2.87,2.69,1.2.42,2.33.82,2.33,1.91,0,1.52-1.51,1.68-2.16,1.68a2,2,0,0,1-2.13-1.58v-.19H12.25v.21a3,3,0,0,0,3.29,2.68c1.25,0,3.34-.37,3.34-2.87,0-1.84-1.64-2.4-3.09-2.9"/><polygon class="cls-5" points="20.38 175.87 20.38 185.44 25.14 185.44 25.14 184.38 21.52 184.38 21.52 180.75 23.71 180.75 24.11 179.63 21.52 179.63 21.52 176.96 25.16 176.96 25.16 175.87 20.38 175.87"/><path class="cls-5" d="M29.89,179.82h0c-1.15-.39-2.14-.73-2.14-1.59s.77-1.38,2-1.38a3.46,3.46,0,0,1,1.57.36l.21.11.08-.23a4.11,4.11,0,0,0,.23-.76v-.13l-.11,0a4.17,4.17,0,0,0-2-.41c-2.17,0-3.16,1.27-3.16,2.45,0,1.68,1.47,2.2,2.88,2.69,1.2.42,2.32.82,2.32,1.91,0,1.52-1.5,1.68-2.15,1.68a2,2,0,0,1-2.13-1.58v-.19H26.34v.21c0,1.33,1.19,2.68,3.29,2.68,1.25,0,3.34-.37,3.34-2.87,0-1.84-1.64-2.4-3.09-2.9"/><path class="cls-5" d="M39,184.13c-1.38.47-2.41.49-3,.08a1.59,1.59,0,0,1-.58-1.39v-4.3c0-1.16.6-1.72,1.84-1.72a4.18,4.18,0,0,1,1.34.26l.19.07.36-.85-.17-.09a3.88,3.88,0,0,0-3.46-.1,2.5,2.5,0,0,0-1.24,2.55v4.2a2.58,2.58,0,0,0,1,2.27,3.09,3.09,0,0,0,1.76.47,6.29,6.29,0,0,0,2.24-.45l.18-.06-.26-1Z"/><path class="cls-5" d="M41.79,178.48a1.59,1.59,0,0,1,1.81-1.72,1.6,1.6,0,0,1,1.83,1.72v4.31a1.82,1.82,0,0,1-3.64,0Zm1.84-2.82a2.69,2.69,0,0,0-3,2.94v4.22a2.68,2.68,0,0,0,3,2.77,2.67,2.67,0,0,0,2.94-2.77v-4.21a2.7,2.7,0,0,0-2.93-3"/><polygon class="cls-5" points="51.25 175.87 51.25 176.93 53.48 176.93 53.48 185.44 54.62 185.44 54.62 176.93 56.92 176.93 56.92 175.87 51.25 175.87"/><path class="cls-5" d="M63.06,178.89a4.18,4.18,0,0,1-.18,1.44,1.19,1.19,0,0,1-1.23.78H59.26V177h2.33c1.22,0,1.47,1,1.47,1.92m1.15,0c0-1.91-1-3-2.67-3H58.11v9.57h1.15v-3.2h2.37l.39,0,1.1,3.22H64.3l-1.2-3.58c1.11-.72,1.11-2.25,1.11-3"/><path class="cls-5" d="M68.58,177.89l1,3.22h-2Zm-.49-2-3,9.44,0,.13h1.2l1-3.21h2.69l1,3.21H72.2L69.13,176l0-.14Z"/><polygon class="cls-5" points="79.04 175.87 79.04 183.19 74.41 175.91 74.38 175.87 73.33 175.87 73.33 185.44 74.47 185.44 74.47 178.12 79.1 185.4 79.13 185.44 80.18 185.44 80.18 175.87 79.04 175.87"/><path class="cls-5" d="M85.36,179.82h0c-1.14-.39-2.13-.73-2.13-1.59s.77-1.38,2-1.38a3.52,3.52,0,0,1,1.57.36l.21.11.07-.23a4,4,0,0,0,.24-.76v-.13l-.12,0a4.15,4.15,0,0,0-2-.41c-2.17,0-3.15,1.27-3.15,2.45,0,1.68,1.46,2.2,2.88,2.69,1.19.42,2.32.82,2.32,1.91,0,1.52-1.5,1.68-2.15,1.68A2,2,0,0,1,83,182.89l0-.19H81.82v.21c0,1.33,1.19,2.68,3.29,2.68,1.25,0,3.34-.37,3.34-2.87,0-1.84-1.65-2.4-3.1-2.9"/><polygon class="cls-5" points="93.6 175.87 93.6 185.44 94.74 185.44 94.74 180.75 96.61 180.75 97.08 179.63 94.74 179.63 94.74 176.97 98.38 176.97 98.38 175.87 93.6 175.87"/><path class="cls-5" d="M104.22,178.48v4.31a1.82,1.82,0,0,1-3.64,0v-4.32a1.82,1.82,0,0,1,3.64,0m-1.8-2.82a2.7,2.7,0,0,0-3,2.94v4.22a3,3,0,0,0,5.92,0v-4.21a2.7,2.7,0,0,0-2.93-3"/><path class="cls-5" d="M112.23,178.89a4,4,0,0,1-.19,1.44,1.18,1.18,0,0,1-1.23.78h-2.39V177h2.34c1.21,0,1.47,1,1.47,1.92m1.14,0c0-1.91-1-3-2.67-3h-3.42v9.57h1.14v-3.2h2.38l.38,0,1.11,3.22h1.18l-1.21-3.58c1.11-.72,1.11-2.25,1.11-3"/><path class="cls-5" d="M123.62,182.75c0,1.45-1.09,1.63-2.05,1.63H120v-7.45h1.65a1.85,1.85,0,0,1,2,2Zm-2.1-6.9h-2.67v9.6h2.93c2,0,3-.95,3-2.83V179a3,3,0,0,0-3.24-3.18"/><polygon class="cls-5" points="126.68 175.87 126.68 185.44 131.44 185.44 131.44 184.38 127.82 184.38 127.82 180.75 130.02 180.75 130.41 179.63 127.82 179.63 127.82 176.96 131.47 176.96 131.47 175.87 126.68 175.87"/><polygon class="cls-5" points="137.77 175.87 135.58 183.59 133.41 175.94 133.39 175.87 132.18 175.87 134.89 185.3 134.93 185.44 136.25 185.44 138.91 176.13 138.98 175.87 137.77 175.87"/><polygon class="cls-5" points="140.15 175.87 140.15 185.44 144.91 185.44 144.91 184.38 141.3 184.38 141.3 180.75 143.49 180.75 143.88 179.63 141.3 179.63 141.3 176.96 144.94 176.96 144.94 175.87 140.15 175.87"/><polygon class="cls-5" points="146.63 175.87 146.63 185.44 151.77 185.44 151.77 184.38 147.78 184.38 147.78 175.87 146.63 175.87"/><path class="cls-5" d="M153.91,178.48a1.82,1.82,0,0,1,3.63,0v4.31a1.82,1.82,0,0,1-3.63,0Zm1.83-2.82a2.7,2.7,0,0,0-3,2.94v4.22a3,3,0,0,0,5.91,0v-4.21a2.7,2.7,0,0,0-2.93-3"/><path class="cls-5" d="M165.56,178.89a4,4,0,0,1-.19,1.44,1.18,1.18,0,0,1-1.23.78h-2.39V177h2.33c1.22,0,1.48,1.05,1.48,1.92m-1.53-3h-3.42v9.58h1.14v-3.22h2.37c2.58,0,2.58-2.35,2.58-3.35,0-1.92-1-3-2.67-3"/><polygon class="cls-5" points="168.25 175.87 168.25 185.44 173.01 185.44 173.01 184.38 169.39 184.38 169.39 180.75 171.59 180.75 171.98 179.63 169.39 179.63 169.39 176.96 173.03 176.96 173.03 175.87 168.25 175.87"/><path class="cls-5" d="M179.5,182.75c0,1.45-1.09,1.63-2.05,1.63h-1.57v-7.45h1.65a1.85,1.85,0,0,1,2,2Zm-2.1-6.9h-2.67v9.6h2.93c2,0,3-.95,3-2.83V179a3,3,0,0,0-3.24-3.18"/><polygon class="cls-5" points="186.22 175.87 186.22 185.44 191.35 185.44 191.35 184.38 187.36 184.38 187.36 175.87 186.22 175.87"/><path class="cls-5" d="M193.49,178.48a1.82,1.82,0,0,1,3.63,0v4.31a1.82,1.82,0,0,1-3.63,0Zm1.83-2.82a2.7,2.7,0,0,0-3,2.94v4.22a3,3,0,0,0,5.91,0v-4.21a2.7,2.7,0,0,0-2.93-3"/><path class="cls-5" d="M203.85,182.23h.8v.57a1.59,1.59,0,0,1-1.73,1.66,1.63,1.63,0,0,1-1.81-1.67v-4.26c0-1.15.6-1.72,1.83-1.72a4.29,4.29,0,0,1,1.35.26l.18.07.36-.85-.17-.09a3.91,3.91,0,0,0-3.46-.1,2.71,2.71,0,0,0-1.24,2.55v4.11a2.72,2.72,0,0,0,3,2.81,3,3,0,0,0,1.8-.52l.14.4h.89v-4.34h-2.3Z"/><polygon class="cls-5" points="206.82 175.87 206.82 176.91 207.7 176.94 207.7 185.44 208.84 185.44 208.84 175.87 206.82 175.87"/><path class="cls-5" d="M214,179.82l0,.09,0-.09c-1.15-.39-2.13-.73-2.13-1.59s.76-1.38,2-1.38a3.46,3.46,0,0,1,1.57.36l.21.11.08-.23a4.11,4.11,0,0,0,.23-.76v-.13l-.11,0a4.17,4.17,0,0,0-2-.41c-2.17,0-3.15,1.27-3.15,2.45,0,1.68,1.46,2.2,2.87,2.69,1.2.42,2.32.82,2.32,1.91,0,1.52-1.5,1.68-2.15,1.68a2,2,0,0,1-2.13-1.58v-.19h-1.15v.21a3,3,0,0,0,3.29,2.68c1.25,0,3.34-.37,3.34-2.87,0-1.84-1.64-2.4-3.09-2.9"/><polygon class="cls-5" points="217.63 175.87 217.63 176.93 219.85 176.93 219.85 185.44 221 185.44 221 176.93 223.3 176.93 223.3 175.87 217.63 175.87"/><polygon class="cls-5" points="223.85 175.87 223.85 176.91 224.72 176.94 224.72 185.44 225.86 185.44 225.86 175.87 223.85 175.87"/><path class="cls-5" d="M232.52,184.13c-1.37.47-2.41.49-3,.08a1.61,1.61,0,0,1-.58-1.39v-4.3c0-1.16.61-1.72,1.84-1.72a4.29,4.29,0,0,1,1.35.26l.18.07.36-.85-.17-.09a3.88,3.88,0,0,0-3.46-.1,2.52,2.52,0,0,0-1.24,2.55v4.2a2.56,2.56,0,0,0,1,2.27,3,3,0,0,0,1.76.47,6.33,6.33,0,0,0,2.24-.45l.17-.06-.26-1Z"/><path class="cls-5" d="M237.45,179.82l0,.1,0-.1c-1.14-.39-2.13-.73-2.13-1.59s.77-1.38,2-1.38a3.52,3.52,0,0,1,1.57.36l.21.11.08-.23a4.11,4.11,0,0,0,.23-.76v-.13l-.12,0a4.15,4.15,0,0,0-2-.41c-2.16,0-3.15,1.27-3.15,2.45,0,1.68,1.46,2.2,2.88,2.69,1.19.42,2.32.82,2.32,1.91,0,1.52-1.51,1.68-2.15,1.68a2,2,0,0,1-2.13-1.58l0-.19h-1.14v.22c.05,1.32,1.19,2.67,3.3,2.67,1.25,0,3.34-.37,3.34-2.86,0-1.85-1.65-2.41-3.1-2.91"/><path class="cls-5" d="M248.71,179.82l0,.09,0-.09c-1.14-.39-2.13-.73-2.13-1.59s.77-1.38,2-1.38a3.52,3.52,0,0,1,1.57.36l.21.11.07-.23a4,4,0,0,0,.24-.76v-.13l-.12,0a4.15,4.15,0,0,0-2-.41c-2.17,0-3.15,1.27-3.15,2.45,0,1.68,1.46,2.2,2.88,2.69,1.19.42,2.32.82,2.32,1.91,0,1.52-1.51,1.68-2.15,1.68a2,2,0,0,1-2.13-1.58l0-.19h-1.14v.21c.05,1.33,1.2,2.68,3.3,2.68,1.25,0,3.33-.37,3.33-2.87,0-1.84-1.64-2.4-3.09-2.9"/><path class="cls-5" d="M253.63,184.17a.64.64,0,1,0,.63.64.64.64,0,0,0-.63-.64"/><path class="cls-5" d="M258.78,177.89l1,3.22h-2Zm-.5-2-3,9.31-.08.26h1.2l1-3.21h2.69l1.05,3.21h1.22L259.32,176l0-.14Z"/><path class="cls-5" d="M264,184.17a.64.64,0,1,0,.63.64.64.64,0,0,0-.63-.64"/><polygon class="cls-5" points="266.42 175.87 266.42 185.44 271.18 185.44 271.18 184.38 267.57 184.38 267.57 180.75 269.76 180.75 270.15 179.63 267.57 179.63 267.57 176.96 271.21 176.96 271.21 175.87 266.42 175.87"/></g></g></svg>