<svg xmlns="http://www.w3.org/2000/svg" xmlns:xlink="http://www.w3.org/1999/xlink" viewBox="0 0 368.93 90.58"><defs><style>.cls-1{fill:none;}.cls-2{fill:#fff;}.cls-3{fill:#f7941d;}.cls-4{clip-path:url(#clip-path);}.cls-5{fill:#939598;}</style><clipPath id="clip-path"><path class="cls-1" d="M59.46,57.55s-1-2.37-16.17-2.37S6.74,64.46,6.74,64.46C-3.17,96.55,62.46,96,80.66,79.33s-5.82-24.72-5.82-24.72Z"/></clipPath></defs><g id="Layer_2" data-name="Layer 2"><g id="Layer_1-2" data-name="Layer 1"><path class="cls-2" d="M103.07,47.35h0l.75,2.16h1.47v1a3.52,3.52,0,0,1-.22,1.25,3,3,0,0,1-2.94,1.77,3,3,0,0,1-3.31-3V42.64a4.35,4.35,0,0,1,.06-.74c.24-1.61,1.32-2.39,3.3-2.39a7.54,7.54,0,0,1,2.46.48l.38.14.69-1.64h0l-.35-.18A7.19,7.19,0,0,0,99,38.13c-1.58.95-2.31,2.45-2.31,4.73h0v7.59h0a4.8,4.8,0,0,0,3.58,4.95,7.21,7.21,0,0,0,1.94.27,5.67,5.67,0,0,0,3.3-.94l.24.7h1.7V47.35Z"/><path class="cls-2" d="M115.61,41.59l1.84,5.76h-3.62l.51-1.67Zm-.93-3.9h0L109,55.43h2.3l1.88-5.92h4.9L120,55.43h2.32l-5.78-17.74Z"/><path class="cls-2" d="M144.21,41.59l1.84,5.76h-3.62l.51-1.67Zm-.94-3.9h0L137.6,55.43h2.29L141,52l.79-2.49h4.9l1.94,5.92h2.32l-5.78-17.74Z"/><path class="cls-2" d="M171.15,47.35h-3.6l1.77-5.73Zm-2.75-9.66h0L162.7,55.43H165l1.88-5.92h4.88l1.94,5.92h2.34l-5.78-17.74Z"/><path class="cls-2" d="M189,45c-2.1-.72-3.91-1.34-3.91-2.89,0-1.38,1.05-2.27,2.85-2.47a6.8,6.8,0,0,1,.8,0,6.36,6.36,0,0,1,2.88.66l.43.21h0l.16-.46a7.15,7.15,0,0,0,.43-1.41v-.26l-.24-.11a7.78,7.78,0,0,0-3.71-.77,9,9,0,0,0-1.41.11c-3.06.48-4.46,2.54-4.46,4.47,0,3.12,2.83,4.11,5.33,5,2.28.8,4.26,1.5,4.26,3.49,0,2.75-2.72,3.06-3.91,3.06-2.35,0-3.76-1.49-3.89-2.89l0-.37h-2.21v.43c.09,2.47,2.21,5,6.12,5h0c3.94,0,6.2-2,6.2-5.33S191.66,45.89,189,45"/><polygon class="cls-2" points="194.84 37.69 194.84 37.69 194.84 39.73 198.95 39.73 198.95 55.43 201.13 55.43 201.13 39.73 205.38 39.73 205.38 39.72 205.38 39.72 205.38 37.69 194.84 37.69 194.84 37.69"/><polygon class="cls-2" points="206.78 37.69 206.78 55.43 215.63 55.43 215.63 53.39 208.96 53.39 208.96 46.78 213 46.78 213 46.78 213 46.78 213.52 45.26 213.74 44.62 213.74 44.62 213.74 44.62 208.96 44.62 208.96 39.77 215.68 39.77 215.68 39.77 215.68 37.69 206.78 37.69 206.78 37.69"/><polygon class="cls-2" points="218.01 37.69 218.01 55.43 226.87 55.43 226.87 53.39 220.2 53.39 220.2 46.78 224.23 46.78 224.23 46.78 224.24 46.78 224.6 45.72 224.98 44.62 224.98 44.62 224.98 44.62 220.2 44.62 220.2 39.77 226.91 39.77 226.91 39.77 226.91 37.69 218.01 37.69 218.01 37.69"/><polygon class="cls-2" points="231.43 37.69 229.25 37.69 229.25 37.69 229.25 37.69 229.25 55.43 229.25 55.43 238.8 55.43 238.8 55.43 238.8 53.39 231.43 53.39 231.43 37.69"/><polygon class="cls-2" points="248.44 44.62 248.44 39.8 255.16 39.8 255.16 39.8 255.16 39.8 255.16 37.69 246.26 37.69 246.26 37.69 246.26 37.69 246.26 55.43 246.26 55.43 248.44 55.43 248.44 46.78 251.88 46.78 251.88 46.78 252.45 45.41 252.78 44.62 252.78 44.62 248.44 44.62"/><path class="cls-2" d="M260.24,41.59l1.84,5.76h-3.63l1.36-4.4Zm-.94-3.9h0l-5.68,17.74h2.3l1.88-5.92h4.91l1.93,5.92H267l-5.78-17.74Z"/><path class="cls-2" d="M274.15,53.32h-3.74V46.78h4.15c1.33,0,2.68,1,2.68,3.09a3.81,3.81,0,0,1-.75,2.62,3,3,0,0,1-2.34.83m-.22-8.7h-3.52V39.8h3.38c1.81,0,2.63.74,2.63,2.41a2.19,2.19,0,0,1-2.49,2.41m3.4.86a3.54,3.54,0,0,0,.46-.5,4.28,4.28,0,0,0,.86-2.77c0-2.88-1.7-4.53-4.67-4.53h-5.75V55.43h6c3.33,0,5.32-2,5.32-5.47a5,5,0,0,0-2.19-4.48"/><path class="cls-2" d="M288.46,47.35h-4.37V39.8h4.27c2.21,0,2.68,1.89,2.68,3.51a7.19,7.19,0,0,1-.35,2.63,2.33,2.33,0,0,1-.35.62,2.24,2.24,0,0,1-1.88.79m4.76-4.08c0-3.55-1.81-5.58-5-5.58H281.9V55.43h2.19V49.51h4.34c.23,0,.46,0,.68,0l2,6h2.25l-2.22-6.63c2-1.35,2-4.15,2-5.53"/><polygon class="cls-2" points="294.61 37.69 294.61 37.69 294.61 39.69 296.23 39.74 296.23 55.43 298.41 55.43 298.41 37.69 298.41 37.69 294.61 37.69 294.61 37.69"/><path class="cls-2" d="M309.92,52.93c-.39.14-.77.24-1.14.34a9,9,0,0,1-2.46.33,3.32,3.32,0,0,1-1.88-.52,2.34,2.34,0,0,1-.79-1,4.11,4.11,0,0,1-.26-1.53V42.62c0-2.08,1.13-3.14,3.36-3.14a7.31,7.31,0,0,1,2.46.49l.37.13h0l.7-1.64-.35-.17a7.17,7.17,0,0,0-6.42-.18c-1.42.86-2.3,1.94-2.3,4.73v7.75h0a4.76,4.76,0,0,0,1.87,4.21,5.7,5.7,0,0,0,3.27.88,10.3,10.3,0,0,0,2.44-.32,13.06,13.06,0,0,0,1.7-.51l.35-.14-.49-1.93Z"/><path class="cls-2" d="M318.54,41.59l1.84,5.76h-3.63l.84-2.71Zm-.94-3.9h0l-5.68,17.74h2.3l1.88-5.92H321l1.93,5.92h2.32l-5.77-17.74Z"/><polygon class="cls-2" points="324.04 37.69 324.04 37.69 324.04 39.73 328.14 39.73 328.14 55.43 330.32 55.43 330.33 55.43 330.33 39.73 334.58 39.73 334.58 39.72 334.58 39.72 334.58 37.69 324.04 37.69 324.04 37.69"/><polygon class="cls-2" points="335.9 37.69 335.9 37.69 335.9 39.69 337.51 39.74 337.51 55.43 337.52 55.43 339.7 55.43 339.7 37.69 335.9 37.69 335.9 37.69"/><path class="cls-2" d="M348,53.59a3,3,0,0,1-3.31-3.07v-8A3.68,3.68,0,0,1,345,40.9a3.15,3.15,0,0,1,3-1.49c1.24,0,3.33.41,3.33,3.14v8a2.73,2.73,0,0,1-1.73,2.82,4.59,4.59,0,0,1-1.6.27M348,37.3a5.21,5.21,0,0,0-4.72,2.21,6,6,0,0,0-.82,3.25v7.78c0,3.8,2.84,5.16,5.51,5.16h0c2.64,0,5.47-1.36,5.47-5.16V42.79c0-3.44-2-5.49-5.44-5.49"/><polygon class="cls-2" points="366.75 37.69 366.75 37.69 366.75 37.69 366.75 51.1 358.21 37.69 356.22 37.69 356.22 37.69 356.21 37.69 356.21 55.43 356.22 55.43 358.4 55.43 358.4 42.02 366.94 55.43 366.94 55.43 368.93 55.43 368.94 55.43 368.94 37.69 366.75 37.69"/><polygon class="cls-2" points="126.51 53.37 136.05 39.44 136.05 39.44 136.05 39.44 136.05 37.69 123.91 37.69 123.91 39.75 123.91 39.75 133.13 39.75 123.6 53.68 123.6 55.43 136.19 55.43 136.19 55.43 136.19 53.37 136.19 53.37 126.51 53.37"/><polygon class="cls-2" points="154.38 37.69 154.38 37.69 152.2 37.69 152.2 37.69 152.2 55.43 161.75 55.43 161.75 55.43 161.75 53.39 154.38 53.39 154.38 37.69"/><path class="cls-2" d="M100.05,68.6h0c-1.1-.38-2-.7-2-1.53s.74-1.32,1.93-1.32a3.23,3.23,0,0,1,1.51.34l.2.1.08-.22a3.84,3.84,0,0,0,.22-.73v-.12l-.11-.05a4,4,0,0,0-1.92-.4c-2.09,0-3,1.23-3,2.36,0,1.62,1.41,2.11,2.77,2.59,1.15.4,2.23.78,2.23,1.83,0,1.46-1.44,1.62-2.07,1.62a1.89,1.89,0,0,1-2-1.52l0-.18h-1.1v.2c0,1.28,1.14,2.58,3.17,2.58,1.19,0,3.2-.36,3.2-2.76,0-1.78-1.58-2.32-3-2.79"/><polygon class="cls-2" points="104.45 74.01 109.03 74.01 109.03 72.98 105.56 72.98 105.56 69.5 107.66 69.5 108.04 68.41 105.56 68.41 105.56 65.84 109.05 65.84 109.05 64.8 104.45 64.8 104.45 74.01"/><path class="cls-2" d="M113.6,68.6h0c-1.1-.38-2-.7-2-1.53s.74-1.32,1.93-1.32a3.26,3.26,0,0,1,1.51.34l.2.1.07-.22a3.71,3.71,0,0,0,.23-.73v-.12l-.11-.05a4,4,0,0,0-1.93-.4c-2.08,0-3,1.23-3,2.36,0,1.62,1.41,2.11,2.77,2.59,1.15.4,2.23.78,2.23,1.83,0,1.46-1.44,1.62-2.07,1.62a1.89,1.89,0,0,1-2-1.52l0-.18h-1.1v.2a2.86,2.86,0,0,0,3.16,2.58c1.2,0,3.21-.36,3.21-2.76,0-1.78-1.58-2.32-3-2.79"/><path class="cls-2" d="M122.33,72.74c-1.32.45-2.32.48-2.88.08a1.54,1.54,0,0,1-.55-1.34V67.35c0-1.12.58-1.66,1.77-1.66A4,4,0,0,1,122,66l.17.06.35-.82-.16-.08A3.77,3.77,0,0,0,119,65a2.41,2.41,0,0,0-1.19,2.45v4.05a2.49,2.49,0,0,0,1,2.18,3,3,0,0,0,1.69.45,6,6,0,0,0,2.15-.44l.17-.06-.25-1Z"/><path class="cls-2" d="M125,67.31a1.75,1.75,0,0,1,3.5,0v4.14a1.76,1.76,0,0,1-3.5,0Zm1.77-2.72a2.6,2.6,0,0,0-2.87,2.83v4.06a2.85,2.85,0,0,0,5.69,0v-4a2.61,2.61,0,0,0-2.82-2.85"/><polygon class="cls-2" points="134.14 65.82 136.28 65.82 136.28 74 137.38 74 137.38 65.82 139.6 65.82 139.6 64.8 134.14 64.8 134.14 65.82"/><path class="cls-2" d="M145.5,67.71a3.78,3.78,0,0,1-.18,1.37,1.13,1.13,0,0,1-1.18.75h-2.3v-4h2.25c1.16,0,1.41,1,1.41,1.85m1.1,0c0-1.84-.93-2.89-2.57-2.89h-3.29V74h1.1V70.92h2.28l.37,0L145.56,74h1.13l-1.16-3.45c1.07-.69,1.07-2.16,1.07-2.87"/><path class="cls-2" d="M151.8,69.83h-2l1-3.09Zm-.51-5h-.95l-2.91,9.08,0,.13h1.16l1-3.09h2.58l1,3.09h1.17l-3-9.08Z"/><polygon class="cls-2" points="160.86 71.84 156.41 64.84 156.38 64.8 155.37 64.8 155.37 74.01 156.47 74.01 156.47 66.96 160.92 73.96 160.95 74.01 161.96 74.01 161.96 64.8 160.86 64.8 160.86 71.84"/><path class="cls-2" d="M166.94,68.6h0c-1.1-.38-2.05-.7-2.05-1.53s.74-1.32,1.93-1.32a3.23,3.23,0,0,1,1.51.34l.21.1.07-.22a3.84,3.84,0,0,0,.22-.73v-.12l-.11-.05a4,4,0,0,0-1.92-.4c-2.08,0-3,1.23-3,2.36,0,1.62,1.4,2.11,2.77,2.59,1.14.4,2.23.78,2.23,1.83,0,1.46-1.45,1.62-2.07,1.62a1.9,1.9,0,0,1-2-1.52l0-.18h-1.1v.2a2.87,2.87,0,0,0,3.17,2.58c1.2,0,3.21-.36,3.21-2.76,0-1.78-1.59-2.32-3-2.79"/><polygon class="cls-2" points="174.86 74.01 175.96 74.01 175.96 69.5 177.76 69.5 178.21 68.41 175.96 68.41 175.96 65.86 179.46 65.86 179.46 64.8 174.86 64.8 174.86 74.01"/><path class="cls-2" d="M185.07,67.31v4.14a1.76,1.76,0,0,1-3.5,0V67.31a1.75,1.75,0,0,1,3.5,0m-1.73-2.72a2.59,2.59,0,0,0-2.86,2.83v4.06a2.85,2.85,0,0,0,5.68,0v-4a2.61,2.61,0,0,0-2.82-2.85"/><path class="cls-2" d="M192.78,67.71a3.78,3.78,0,0,1-.18,1.37,1.14,1.14,0,0,1-1.19.75h-2.3v-4h2.25c1.17,0,1.42,1,1.42,1.85m1.1,0c0-1.84-.94-2.89-2.57-2.89H188V74h1.09V70.92h2.29l.37,0L192.83,74H194l-1.16-3.45c1.07-.69,1.07-2.16,1.07-2.87"/><path class="cls-2" d="M203.73,71.42c0,1.39-1,1.56-2,1.56h-1.52V65.82h1.6a1.78,1.78,0,0,1,1.89,1.89Zm-2-6.64h-2.56V74H202c1.9,0,2.87-.92,2.87-2.72V67.84a2.84,2.84,0,0,0-3.12-3.06"/><polygon class="cls-2" points="206.67 74.01 211.25 74.01 211.25 72.98 207.77 72.98 207.77 69.5 209.88 69.5 210.26 68.41 207.77 68.41 207.77 65.84 211.27 65.84 211.27 64.8 206.67 64.8 206.67 74.01"/><polygon class="cls-2" points="215.23 72.22 213.15 64.87 213.13 64.8 211.96 64.8 214.56 73.86 214.61 74 215.87 74 218.43 65.05 218.5 64.8 217.34 64.8 215.23 72.22"/><polygon class="cls-2" points="219.63 74.01 224.21 74.01 224.21 72.98 220.73 72.98 220.73 69.5 222.84 69.5 223.21 68.41 220.73 68.41 220.73 65.84 224.23 65.84 224.23 64.8 219.63 64.8 219.63 74.01"/><polygon class="cls-2" points="226.96 64.8 225.86 64.8 225.86 74.01 230.8 74.01 230.8 72.98 226.96 72.98 226.96 64.8"/><path class="cls-2" d="M232.85,67.31a1.75,1.75,0,0,1,3.5,0v4.14a1.76,1.76,0,0,1-3.5,0Zm1.77-2.72a2.59,2.59,0,0,0-2.86,2.83v4.06a2.85,2.85,0,0,0,5.68,0v-4a2.61,2.61,0,0,0-2.82-2.85"/><path class="cls-2" d="M244.06,67.71a3.86,3.86,0,0,1-.18,1.38,1.14,1.14,0,0,1-1.19.74h-2.3v-4h2.25c1.17,0,1.42,1,1.42,1.85m-1.47-2.91H239.3V74h1.09V70.92h2.29c2.48,0,2.48-2.26,2.48-3.23,0-1.84-.94-2.89-2.57-2.89"/><polygon class="cls-2" points="246.65 74.01 251.22 74.01 251.22 72.98 247.75 72.98 247.75 69.5 249.86 69.5 250.23 68.41 247.75 68.41 247.75 65.84 251.25 65.84 251.25 64.8 246.65 64.8 246.65 74.01"/><path class="cls-2" d="M257.47,71.42c0,1.39-1.06,1.56-2,1.56H254V65.82h1.59a1.78,1.78,0,0,1,1.9,1.89Zm-2-6.64h-2.57V74h2.82c1.9,0,2.86-.92,2.86-2.72V67.84a2.84,2.84,0,0,0-3.11-3.06"/><polygon class="cls-2" points="265.02 64.8 263.92 64.8 263.92 74.01 268.86 74.01 268.86 72.98 265.02 72.98 265.02 64.8"/><path class="cls-2" d="M270.91,67.31a1.75,1.75,0,0,1,3.5,0v4.14a1.76,1.76,0,0,1-3.5,0Zm1.77-2.72a2.59,2.59,0,0,0-2.86,2.83v4.06a2.85,2.85,0,0,0,5.68,0v-4a2.61,2.61,0,0,0-2.82-2.85"/><path class="cls-2" d="M280.88,70.92h.77v.55A1.53,1.53,0,0,1,280,73.06a1.57,1.57,0,0,1-1.74-1.61V67.36c0-1.11.58-1.65,1.77-1.65a3.92,3.92,0,0,1,1.29.25l.18.07.34-.83-.16-.08a3.73,3.73,0,0,0-3.33-.09,2.57,2.57,0,0,0-1.19,2.44v4a2.62,2.62,0,0,0,2.86,2.7,3,3,0,0,0,1.73-.5l.13.38h.85V69.83H280.5Z"/><polygon class="cls-2" points="283.74 64.8 283.74 65.8 284.58 65.83 284.58 74.01 285.68 74.01 285.68 64.8 283.74 64.8"/><path class="cls-2" d="M290.67,68.6l0,.09,0-.09c-1.11-.38-2.06-.7-2.06-1.53s.74-1.32,1.94-1.32a3.26,3.26,0,0,1,1.51.34l.2.1.07-.22a3.71,3.71,0,0,0,.23-.73v-.12l-.12-.05a4,4,0,0,0-1.92-.4c-2.08,0-3,1.23-3,2.36,0,1.62,1.4,2.11,2.77,2.59,1.15.4,2.23.78,2.23,1.83,0,1.46-1.45,1.62-2.07,1.62a1.9,1.9,0,0,1-2.05-1.52v-.18h-1.1v.2a2.88,2.88,0,0,0,3.17,2.58c1.2,0,3.21-.36,3.21-2.76,0-1.78-1.58-2.32-3-2.79"/><polygon class="cls-2" points="294.13 65.82 296.27 65.82 296.27 74 297.37 74 297.37 65.82 299.58 65.82 299.58 64.8 294.13 64.8 294.13 65.82"/><polygon class="cls-2" points="300.11 64.8 300.11 65.8 300.95 65.83 300.95 74.01 302.05 74.01 302.05 64.8 300.11 64.8"/><path class="cls-2" d="M308.45,72.74c-1.32.45-2.32.48-2.88.08a1.56,1.56,0,0,1-.55-1.34V67.35c0-1.12.58-1.66,1.77-1.66a4,4,0,0,1,1.29.26l.18.06.34-.82-.16-.08a3.77,3.77,0,0,0-3.33-.1,2.43,2.43,0,0,0-1.19,2.45v4.05a2.49,2.49,0,0,0,1,2.18,3,3,0,0,0,1.69.45,6,6,0,0,0,2.15-.44l.17-.06-.25-1Z"/><path class="cls-2" d="M313.19,68.6l0,.09,0-.09c-1.1-.38-2.05-.7-2.05-1.53s.74-1.33,1.93-1.33a3.23,3.23,0,0,1,1.51.35l.2.1.08-.22a3.84,3.84,0,0,0,.22-.73v-.12l-.11-.05a4,4,0,0,0-1.93-.4c-2.08,0-3,1.23-3,2.36,0,1.62,1.4,2.11,2.76,2.59,1.15.4,2.24.78,2.24,1.83,0,1.46-1.45,1.62-2.07,1.62a1.9,1.9,0,0,1-2.05-1.52l0-.18h-1.1v.2c0,1.28,1.14,2.57,3.17,2.57,1.2,0,3.2-.35,3.2-2.75,0-1.78-1.58-2.32-3-2.79"/><path class="cls-2" d="M324,68.6l0,.09,0-.09c-1.1-.38-2-.7-2-1.53s.74-1.32,1.93-1.32a3.26,3.26,0,0,1,1.51.34l.2.1.07-.22a3.71,3.71,0,0,0,.23-.73v-.12l-.11-.05a4,4,0,0,0-1.93-.4c-2.08,0-3,1.23-3,2.36,0,1.62,1.41,2.11,2.77,2.59,1.15.4,2.23.78,2.23,1.83,0,1.46-1.44,1.62-2.07,1.62a1.89,1.89,0,0,1-2-1.52l0-.18h-1.1v.2c0,1.28,1.14,2.58,3.17,2.58,1.19,0,3.2-.36,3.2-2.76,0-1.78-1.58-2.32-3-2.79"/><path class="cls-2" d="M328.74,72.78a.62.62,0,1,0,.62.61.62.62,0,0,0-.62-.61"/><path class="cls-2" d="M334.68,69.83h-1.94l1-3.09Zm-.5-5h-1l-2.86,9-.08.26h1.15l1-3.09H335L336,74h1.17l-3-9.08Z"/><path class="cls-2" d="M338.68,72.78a.62.62,0,0,0,0,1.23.62.62,0,0,0,0-1.23"/><polygon class="cls-2" points="345.65 65.84 345.65 64.8 341.05 64.8 341.05 74.01 345.62 74.01 345.62 72.98 342.15 72.98 342.15 69.5 344.26 69.5 344.63 68.41 342.15 68.41 342.15 65.84 345.65 65.84"/><path class="cls-3" d="M74.15,50.61A33.37,33.37,0,1,1,40.78,17.24,33.37,33.37,0,0,1,74.15,50.61"/><g class="cls-4"><path class="cls-5" d="M74.24,50.69A33.42,33.42,0,1,1,40.83,17.32,33.39,33.39,0,0,1,74.24,50.69"/></g><path class="cls-2" d="M3.41,67c.34-.19.65-.35.86-.45h0A100.94,100.94,0,0,1,26.59,58.3a90,90,0,0,1,18.92-2.25c9.71,0,13.84,2.25,13.84,2.25s22.87-5,30.38-7c-7.88,1.37.09,0,0,0-2.53.41,0,0-10,1.74-10.51,1.84-20.37,3.61-20.37,3.61a56.26,56.26,0,0,0-15-2.41c-.81,0-1.61,0-2.41.09-7.44.57-18.51,2.35-37.42,11.2h0l-.24.11v0c-.78.45-3.08,1.83-3.14,2.34"/><path class="cls-2" d="M.33,67.41a41.31,41.31,0,0,1,4-2.68c13.08-8.07,19.15-11.66,18.88-20C22.89,35.26,7.88,34.31,7.88,34.31l4.21-3s.86-2.68,2.13-3.42a30.21,30.21,0,0,1,5-1.69s.59,19.16,22.52,19.34h.22c12.3,0,24.73-8.56,24.73-8.56a108.55,108.55,0,0,1-15.12,5.81,27.86,27.86,0,0,1-8.08,1.17c-6,0-11.71-1.81-15.5-4.86-5.49-4.45-7.66-10.68-5.76-13.8s7.24-3.91,10.89-6.77A10.42,10.42,0,0,0,35,16.41c1.27-.82,4.44-2.87,4.84-3.27s2.53-6.35,2.53-6.35L39,12.63l-2.4,1.28a79.6,79.6,0,0,0,4.51-9.73,93.56,93.56,0,0,1-7.61,11.31c-3.54,4.17-10,6-10,6a49.62,49.62,0,0,1,3.43-6.08c1.38-1.79,6.19-2.54,7.25-3.59S38.38,0,38.38,0l-5.5,10.84s-.37.63-3.75,1.69-3.49,2-4.87,4.44-5.54,7.15-10.78,8.77c-3.07,1-2.89,4.2-5,5.71-3.13,2.27-6.91,3-6.13,4s5.09.77,7.82,1.37c6,1.31,12.11,3.59,11.31,10-1,7.8-8,10.88-16.8,16l-.08,0-.43.26h0L0,65.68"/><path class="cls-2" d="M25.63,60.16H36.82l.25.25v3.9c0,.44-.28.66-.83.66H29a1.25,1.25,0,0,0-1.33,1.08V79.14a1.28,1.28,0,0,0,.83.91h2.9a.44.44,0,0,0,.5-.49v-8c.12-.09.21-.15.5-.4h4.89a.59.59,0,0,1,.66.67V84.28q0,.63-.33.75H26.63a6.34,6.34,0,0,1-4.14-2.57,6,6,0,0,1-.92-2.66V65.14a5.06,5.06,0,0,1,1.83-3.73,4.19,4.19,0,0,1,2.23-1.25"/><path class="cls-2" d="M44.78,60.16h10.6l.25.25v3.9a.56.56,0,0,1-.33.58H47.76q-1.32.38-1.32,1.41V68c0,.92.84,1.39,2.48,1.74.41.08,2.18.47,5.22,1.24,1.69.43,2.24,2.39,2.24,4.48V79a5.62,5.62,0,0,1-3.56,5.63L50.74,85H41.38a.88.88,0,0,1-.75-.5V80.39l.49-.32.59,0H49c.89-.17,1.33-.62,1.33-1.32V76.66a1.46,1.46,0,0,0-1.08-1.5c-5-1-7-2-7.46-2.23-1.06-.63-1.4-2.08-1.4-3.82V65.55a5.34,5.34,0,0,1,3.39-5Z"/><path class="cls-2" d="M59.3,60.16H75.52c.33,0,.5.23.5.67v3.89a.66.66,0,0,1-.75.75H66.08l-.25.25v4.47a.6.6,0,0,0,.25.5H73.2a.56.56,0,0,1,.33.58v4.31a.51.51,0,0,1-.58.58H66l-.16.17v8.45l-.25.25H59.2q-.27,0-.33-1.17l.08-23v-.12c.18-.3.26-.47.35-.63"/></g></g></svg>